<?xml version="1.0" encoding="UTF-8" standalone="no"?>
<!DOCTYPE svg PUBLIC "-//W3C//DTD SVG 1.1//EN"
 "http://www.w3.org/Graphics/SVG/1.1/DTD/svg11.dtd">
<!-- Generated by graphviz version 2.38.0 (20140413.2041)
 -->
<!-- Title: controllers_diagram Pages: 1 -->
<svg width="1001pt" height="397pt"
 viewBox="0.00 0.00 1000.50 397.00" xmlns="http://www.w3.org/2000/svg" xmlns:xlink="http://www.w3.org/1999/xlink">
<g id="graph0" class="graph" transform="scale(1 1) rotate(0) translate(4 393)">
<title>controllers_diagram</title>
<polygon fill="none" stroke="none" points="-4,4 -4,-393 996.5,-393 996.5,4 -4,4"/>
<!-- _diagram_info -->
<g id="node1" class="node"><title>_diagram_info</title>
<text text-anchor="start" x="236" y="-351.6" font-family="Times,serif" font-size="13.00">Controllers diagram</text>
<text text-anchor="start" x="236" y="-337.6" font-family="Times,serif" font-size="13.00">Date: Feb 25 2016 &#45; 13:36</text>
<text text-anchor="start" x="236" y="-323.6" font-family="Times,serif" font-size="13.00">Migration version: 20151007012850</text>
<text text-anchor="start" x="236" y="-309.6" font-family="Times,serif" font-size="13.00">Generated by RailRoady 1.4.2</text>
<text text-anchor="start" x="236" y="-295.6" font-family="Times,serif" font-size="13.00">http://railroady.prestonlee.com</text>
</g>
<!-- AdminsController -->
<g id="node2" class="node"><title>AdminsController</title>
<path fill="none" stroke="black" d="M12,-38C12,-38 132,-38 132,-38 138,-38 144,-44 144,-50 144,-50 144,-179 144,-179 144,-185 138,-191 132,-191 132,-191 12,-191 12,-191 6,-191 0,-185 0,-179 0,-179 0,-50 0,-50 0,-44 6,-38 12,-38"/>
<text text-anchor="middle" x="72" y="-175.8" font-family="Times,serif" font-size="14.00">AdminsController</text>
<polyline fill="none" stroke="black" points="0,-168 144,-168 "/>
<text text-anchor="start" x="8" y="-152.8" font-family="Times,serif" font-size="14.00">admin_dash_brands</text>
<text text-anchor="start" x="8" y="-137.8" font-family="Times,serif" font-size="14.00">admin_dash_followers</text>
<text text-anchor="start" x="8" y="-122.8" font-family="Times,serif" font-size="14.00">admin_dash_orders</text>
<text text-anchor="start" x="8" y="-107.8" font-family="Times,serif" font-size="14.00">admin_dashboard</text>
<text text-anchor="start" x="8" y="-92.8" font-family="Times,serif" font-size="14.00">show_brand</text>
<polyline fill="none" stroke="black" points="0,-85 144,-85 "/>
<polyline fill="none" stroke="black" points="0,-61 144,-61 "/>
<text text-anchor="start" x="8" y="-45.8" font-family="Times,serif" font-size="14.00">_layout</text>
</g>
<!-- ApplicationController -->
<g id="node3" class="node"><title>ApplicationController</title>
<path fill="none" stroke="black" d="M466,-265.5C466,-265.5 594,-265.5 594,-265.5 600,-265.5 606,-271.5 606,-277.5 606,-277.5 606,-376.5 606,-376.5 606,-382.5 600,-388.5 594,-388.5 594,-388.5 466,-388.5 466,-388.5 460,-388.5 454,-382.5 454,-376.5 454,-376.5 454,-277.5 454,-277.5 454,-271.5 460,-265.5 466,-265.5"/>
<text text-anchor="middle" x="530" y="-373.3" font-family="Times,serif" font-size="14.00">ApplicationController</text>
<polyline fill="none" stroke="black" points="454,-365.5 606,-365.5 "/>
<text text-anchor="start" x="462" y="-350.3" font-family="Times,serif" font-size="14.00">after_sign_out_path_for</text>
<text text-anchor="start" x="462" y="-335.3" font-family="Times,serif" font-size="14.00">client</text>
<text text-anchor="start" x="462" y="-320.3" font-family="Times,serif" font-size="14.00">media</text>
<polyline fill="none" stroke="black" points="454,-312.5 606,-312.5 "/>
<polyline fill="none" stroke="black" points="454,-288.5 606,-288.5 "/>
<text text-anchor="start" x="462" y="-273.3" font-family="Times,serif" font-size="14.00">_layout</text>
</g>
<!-- ApplicationController&#45;&gt;AdminsController -->
<g id="edge1" class="edge"><title>ApplicationController&#45;&gt;AdminsController</title>
<path fill="none" stroke="black" d="M453.846,-268.829C450.914,-267.441 447.961,-266.157 445,-265 323.21,-217.402 265.368,-295.871 153,-229 137.294,-219.653 123.806,-205.947 112.595,-191.267"/>
</g>
<!-- BigcommerceCallbacksController -->
<g id="node4" class="node"><title>BigcommerceCallbacksController</title>
<path fill="none" stroke="black" d="M174,-15.5C174,-15.5 358,-15.5 358,-15.5 364,-15.5 370,-21.5 370,-27.5 370,-27.5 370,-201.5 370,-201.5 370,-207.5 364,-213.5 358,-213.5 358,-213.5 174,-213.5 174,-213.5 168,-213.5 162,-207.5 162,-201.5 162,-201.5 162,-27.5 162,-27.5 162,-21.5 168,-15.5 174,-15.5"/>
<text text-anchor="middle" x="266" y="-198.3" font-family="Times,serif" font-size="14.00">BigcommerceCallbacksController</text>
<polyline fill="none" stroke="black" points="162,-190.5 370,-190.5 "/>
<text text-anchor="start" x="170" y="-175.3" font-family="Times,serif" font-size="14.00">bigcommerce</text>
<text text-anchor="start" x="170" y="-160.3" font-family="Times,serif" font-size="14.00">load</text>
<text text-anchor="start" x="170" y="-145.3" font-family="Times,serif" font-size="14.00">receive_order</text>
<polyline fill="none" stroke="black" points="162,-137.5 370,-137.5 "/>
<polyline fill="none" stroke="black" points="162,-113.5 370,-113.5 "/>
<text text-anchor="start" x="170" y="-98.3" font-family="Times,serif" font-size="14.00">_layout</text>
<text text-anchor="start" x="170" y="-83.3" font-family="Times,serif" font-size="14.00">auth</text>
<text text-anchor="start" x="170" y="-68.3" font-family="Times,serif" font-size="14.00">extras</text>
<text text-anchor="start" x="170" y="-53.3" font-family="Times,serif" font-size="14.00">parse_signed_payload</text>
<text text-anchor="start" x="170" y="-38.3" font-family="Times,serif" font-size="14.00">secure_compare</text>
<text text-anchor="start" x="170" y="-23.3" font-family="Times,serif" font-size="14.00">sign_payload</text>
</g>
<!-- ApplicationController&#45;&gt;BigcommerceCallbacksController -->
<g id="edge2" class="edge"><title>ApplicationController&#45;&gt;BigcommerceCallbacksController</title>
<path fill="none" stroke="black" d="M453.834,-270.703C450.868,-268.753 447.916,-266.845 445,-265 417.093,-247.343 406.399,-248.841 380,-229 373.637,-224.218 367.278,-219.094 361.001,-213.763"/>
</g>
<!-- BrandsController -->
<g id="node5" class="node"><title>BrandsController</title>
<path fill="none" stroke="black" d="M400.5,-0.5C400.5,-0.5 491.5,-0.5 491.5,-0.5 497.5,-0.5 503.5,-6.5 503.5,-12.5 503.5,-12.5 503.5,-216.5 503.5,-216.5 503.5,-222.5 497.5,-228.5 491.5,-228.5 491.5,-228.5 400.5,-228.5 400.5,-228.5 394.5,-228.5 388.5,-222.5 388.5,-216.5 388.5,-216.5 388.5,-12.5 388.5,-12.5 388.5,-6.5 394.5,-0.5 400.5,-0.5"/>
<text text-anchor="middle" x="446" y="-213.3" font-family="Times,serif" font-size="14.00">BrandsController</text>
<polyline fill="none" stroke="black" points="388.5,-205.5 503.5,-205.5 "/>
<text text-anchor="start" x="396.5" y="-190.3" font-family="Times,serif" font-size="14.00">dashboard</text>
<text text-anchor="start" x="396.5" y="-175.3" font-family="Times,serif" font-size="14.00">filter_dashboard</text>
<text text-anchor="start" x="396.5" y="-160.3" font-family="Times,serif" font-size="14.00">initial_settings</text>
<text text-anchor="start" x="396.5" y="-145.3" font-family="Times,serif" font-size="14.00">initialize_settings</text>
<text text-anchor="start" x="396.5" y="-130.3" font-family="Times,serif" font-size="14.00">instagram_auth</text>
<text text-anchor="start" x="396.5" y="-115.3" font-family="Times,serif" font-size="14.00">send_stripe_info</text>
<text text-anchor="start" x="396.5" y="-100.3" font-family="Times,serif" font-size="14.00">set_up_stripe</text>
<text text-anchor="start" x="396.5" y="-85.3" font-family="Times,serif" font-size="14.00">settings</text>
<text text-anchor="start" x="396.5" y="-70.3" font-family="Times,serif" font-size="14.00">sort_dashboard</text>
<text text-anchor="start" x="396.5" y="-55.3" font-family="Times,serif" font-size="14.00">update_settings</text>
<polyline fill="none" stroke="black" points="388.5,-47.5 503.5,-47.5 "/>
<polyline fill="none" stroke="black" points="388.5,-23.5 503.5,-23.5 "/>
<text text-anchor="start" x="396.5" y="-8.3" font-family="Times,serif" font-size="14.00">_layout</text>
</g>
<!-- ApplicationController&#45;&gt;BrandsController -->
<g id="edge3" class="edge"><title>ApplicationController&#45;&gt;BrandsController</title>
<path fill="none" stroke="black" d="M505.816,-265.397C501.212,-253.859 496.257,-241.442 491.24,-228.869"/>
</g>
<!-- InstagramCallbacksController -->
<g id="node6" class="node"><title>InstagramCallbacksController</title>
<path fill="none" stroke="black" d="M533.5,-38C533.5,-38 694.5,-38 694.5,-38 700.5,-38 706.5,-44 706.5,-50 706.5,-50 706.5,-179 706.5,-179 706.5,-185 700.5,-191 694.5,-191 694.5,-191 533.5,-191 533.5,-191 527.5,-191 521.5,-185 521.5,-179 521.5,-179 521.5,-50 521.5,-50 521.5,-44 527.5,-38 533.5,-38"/>
<text text-anchor="middle" x="614" y="-175.8" font-family="Times,serif" font-size="14.00">InstagramCallbacksController</text>
<polyline fill="none" stroke="black" points="521.5,-168 706.5,-168 "/>
<text text-anchor="start" x="529.5" y="-152.8" font-family="Times,serif" font-size="14.00">challenge</text>
<text text-anchor="start" x="529.5" y="-137.8" font-family="Times,serif" font-size="14.00">instagram</text>
<text text-anchor="start" x="529.5" y="-122.8" font-family="Times,serif" font-size="14.00">receive_post</text>
<polyline fill="none" stroke="black" points="521.5,-115 706.5,-115 "/>
<polyline fill="none" stroke="black" points="521.5,-91 706.5,-91 "/>
<text text-anchor="start" x="529.5" y="-75.8" font-family="Times,serif" font-size="14.00">_layout</text>
<text text-anchor="start" x="529.5" y="-60.8" font-family="Times,serif" font-size="14.00">auth</text>
<text text-anchor="start" x="529.5" y="-45.8" font-family="Times,serif" font-size="14.00">extras</text>
</g>
<!-- ApplicationController&#45;&gt;InstagramCallbacksController -->
<g id="edge4" class="edge"><title>ApplicationController&#45;&gt;InstagramCallbacksController</title>
<path fill="none" stroke="black" d="M554.184,-265.397C563.441,-242.199 574.116,-215.448 583.862,-191.024"/>
</g>
<!-- PagesController -->
<g id="node7" class="node"><title>PagesController</title>
<path fill="none" stroke="black" d="M736.5,-60.5C736.5,-60.5 819.5,-60.5 819.5,-60.5 825.5,-60.5 831.5,-66.5 831.5,-72.5 831.5,-72.5 831.5,-156.5 831.5,-156.5 831.5,-162.5 825.5,-168.5 819.5,-168.5 819.5,-168.5 736.5,-168.5 736.5,-168.5 730.5,-168.5 724.5,-162.5 724.5,-156.5 724.5,-156.5 724.5,-72.5 724.5,-72.5 724.5,-66.5 730.5,-60.5 736.5,-60.5"/>
<text text-anchor="middle" x="778" y="-153.3" font-family="Times,serif" font-size="14.00">PagesController</text>
<polyline fill="none" stroke="black" points="724.5,-145.5 831.5,-145.5 "/>
<text text-anchor="start" x="732.5" y="-130.3" font-family="Times,serif" font-size="14.00">denied_request</text>
<text text-anchor="start" x="732.5" y="-115.3" font-family="Times,serif" font-size="14.00">home</text>
<polyline fill="none" stroke="black" points="724.5,-107.5 831.5,-107.5 "/>
<polyline fill="none" stroke="black" points="724.5,-83.5 831.5,-83.5 "/>
<text text-anchor="start" x="732.5" y="-68.3" font-family="Times,serif" font-size="14.00">_layout</text>
</g>
<!-- ApplicationController&#45;&gt;PagesController -->
<g id="edge5" class="edge"><title>ApplicationController&#45;&gt;PagesController</title>
<path fill="none" stroke="black" d="M606.211,-298.468C642.695,-282.442 685.061,-259.349 716,-229 733.231,-212.098 746.923,-189.377 757.011,-168.704"/>
</g>
<!-- ShoppersController -->
<g id="node8" class="node"><title>ShoppersController</title>
<path fill="none" stroke="black" d="M861.5,-60.5C861.5,-60.5 980.5,-60.5 980.5,-60.5 986.5,-60.5 992.5,-66.5 992.5,-72.5 992.5,-72.5 992.5,-156.5 992.5,-156.5 992.5,-162.5 986.5,-168.5 980.5,-168.5 980.5,-168.5 861.5,-168.5 861.5,-168.5 855.5,-168.5 849.5,-162.5 849.5,-156.5 849.5,-156.5 849.5,-72.5 849.5,-72.5 849.5,-66.5 855.5,-60.5 861.5,-60.5"/>
<text text-anchor="middle" x="921" y="-153.3" font-family="Times,serif" font-size="14.00">ShoppersController</text>
<polyline fill="none" stroke="black" points="849.5,-145.5 992.5,-145.5 "/>
<text text-anchor="start" x="857.5" y="-130.3" font-family="Times,serif" font-size="14.00">shopper_sign_up</text>
<text text-anchor="start" x="857.5" y="-115.3" font-family="Times,serif" font-size="14.00">shopper_signup_email</text>
<polyline fill="none" stroke="black" points="849.5,-107.5 992.5,-107.5 "/>
<polyline fill="none" stroke="black" points="849.5,-83.5 992.5,-83.5 "/>
<text text-anchor="start" x="857.5" y="-68.3" font-family="Times,serif" font-size="14.00">_layout</text>
</g>
<!-- ApplicationController&#45;&gt;ShoppersController -->
<g id="edge6" class="edge"><title>ApplicationController&#45;&gt;ShoppersController</title>
<path fill="none" stroke="black" d="M606.227,-316.33C673.312,-304.729 770.942,-280.035 841,-229 862.532,-213.315 880.381,-190.024 893.714,-168.615"/>
</g>
</g>
</svg>
