<?xml version="1.0" encoding="UTF-8" standalone="no"?>
<!DOCTYPE svg PUBLIC "-//W3C//DTD SVG 1.1//EN"
 "http://www.w3.org/Graphics/SVG/1.1/DTD/svg11.dtd">
<!-- Generated by graphviz version 2.38.0 (20140413.2041)
 -->
<!-- Title: models_diagram Pages: 1 -->
<svg width="1275pt" height="2354pt"
 viewBox="0.00 0.00 1275.00 2354.00" xmlns="http://www.w3.org/2000/svg" xmlns:xlink="http://www.w3.org/1999/xlink">
<g id="graph0" class="graph" transform="scale(1 1) rotate(0) translate(4 2350)">
<title>models_diagram</title>
<polygon fill="none" stroke="none" points="-4,4 -4,-2350 1271,-2350 1271,4 -4,4"/>
<!-- _diagram_info -->
<g id="node1" class="node"><title>_diagram_info</title>
<text text-anchor="start" x="360" y="-2331.6" font-family="Times,serif" font-size="13.00">Models diagram</text>
<text text-anchor="start" x="360" y="-2317.6" font-family="Times,serif" font-size="13.00">Date: Feb 24 2016 &#45; 17:36</text>
<text text-anchor="start" x="360" y="-2303.6" font-family="Times,serif" font-size="13.00">Migration version: 20151007012850</text>
<text text-anchor="start" x="360" y="-2289.6" font-family="Times,serif" font-size="13.00">Generated by RailRoady 1.4.2</text>
<text text-anchor="start" x="360" y="-2275.6" font-family="Times,serif" font-size="13.00">http://railroady.prestonlee.com</text>
</g>
<!-- Admin -->
<g id="node2" class="node"><title>Admin</title>
<path fill="none" stroke="black" d="M12,-1893C12,-1893 280,-1893 280,-1893 286,-1893 292,-1899 292,-1905 292,-1905 292,-2107 292,-2107 292,-2113 286,-2119 280,-2119 280,-2119 12,-2119 12,-2119 6,-2119 0,-2113 0,-2107 0,-2107 0,-1905 0,-1905 0,-1899 6,-1893 12,-1893"/>
<text text-anchor="middle" x="146" y="-2103.8" font-family="Times,serif" font-size="14.00">Admin</text>
<polyline fill="none" stroke="black" points="0,-2096 292,-2096 "/>
<text text-anchor="start" x="8" y="-2080.8" font-family="Times,serif" font-size="14.00">id :integer</text>
<text text-anchor="start" x="8" y="-2065.8" font-family="Times,serif" font-size="14.00">email :character varying</text>
<text text-anchor="start" x="8" y="-2050.8" font-family="Times,serif" font-size="14.00">encrypted_password :character varying</text>
<text text-anchor="start" x="8" y="-2035.8" font-family="Times,serif" font-size="14.00">sign_in_count :integer</text>
<text text-anchor="start" x="8" y="-2020.8" font-family="Times,serif" font-size="14.00">current_sign_in_at :timestamp without time zone</text>
<text text-anchor="start" x="8" y="-2005.8" font-family="Times,serif" font-size="14.00">last_sign_in_at :timestamp without time zone</text>
<text text-anchor="start" x="8" y="-1990.8" font-family="Times,serif" font-size="14.00">current_sign_in_ip :inet</text>
<text text-anchor="start" x="8" y="-1975.8" font-family="Times,serif" font-size="14.00">last_sign_in_ip :inet</text>
<text text-anchor="start" x="8" y="-1960.8" font-family="Times,serif" font-size="14.00">failed_attempts :integer</text>
<text text-anchor="start" x="8" y="-1945.8" font-family="Times,serif" font-size="14.00">unlock_token :character varying</text>
<text text-anchor="start" x="8" y="-1930.8" font-family="Times,serif" font-size="14.00">locked_at :timestamp without time zone</text>
<text text-anchor="start" x="8" y="-1915.8" font-family="Times,serif" font-size="14.00">created_at :timestamp without time zone</text>
<text text-anchor="start" x="8" y="-1900.8" font-family="Times,serif" font-size="14.00">updated_at :timestamp without time zone</text>
</g>
<!-- Brand -->
<g id="node3" class="node"><title>Brand</title>
<path fill="none" stroke="black" d="M702,-1780.5C702,-1780.5 998,-1780.5 998,-1780.5 1004,-1780.5 1010,-1786.5 1010,-1792.5 1010,-1792.5 1010,-2219.5 1010,-2219.5 1010,-2225.5 1004,-2231.5 998,-2231.5 998,-2231.5 702,-2231.5 702,-2231.5 696,-2231.5 690,-2225.5 690,-2219.5 690,-2219.5 690,-1792.5 690,-1792.5 690,-1786.5 696,-1780.5 702,-1780.5"/>
<text text-anchor="middle" x="850" y="-2216.3" font-family="Times,serif" font-size="14.00">Brand</text>
<polyline fill="none" stroke="black" points="690,-2208.5 1010,-2208.5 "/>
<text text-anchor="start" x="698" y="-2193.3" font-family="Times,serif" font-size="14.00">id :integer</text>
<text text-anchor="start" x="698" y="-2178.3" font-family="Times,serif" font-size="14.00">email :text</text>
<text text-anchor="start" x="698" y="-2163.3" font-family="Times,serif" font-size="14.00">encrypted_password :text</text>
<text text-anchor="start" x="698" y="-2148.3" font-family="Times,serif" font-size="14.00">reset_password_token :text</text>
<text text-anchor="start" x="698" y="-2133.3" font-family="Times,serif" font-size="14.00">reset_password_sent_at :timestamp without time zone</text>
<text text-anchor="start" x="698" y="-2118.3" font-family="Times,serif" font-size="14.00">remember_created_at :timestamp without time zone</text>
<text text-anchor="start" x="698" y="-2103.3" font-family="Times,serif" font-size="14.00">sign_in_count :integer</text>
<text text-anchor="start" x="698" y="-2088.3" font-family="Times,serif" font-size="14.00">current_sign_in_at :timestamp without time zone</text>
<text text-anchor="start" x="698" y="-2073.3" font-family="Times,serif" font-size="14.00">last_sign_in_at :timestamp without time zone</text>
<text text-anchor="start" x="698" y="-2058.3" font-family="Times,serif" font-size="14.00">current_sign_in_ip :text</text>
<text text-anchor="start" x="698" y="-2043.3" font-family="Times,serif" font-size="14.00">last_sign_in_ip :text</text>
<text text-anchor="start" x="698" y="-2028.3" font-family="Times,serif" font-size="14.00">created_at :timestamp without time zone</text>
<text text-anchor="start" x="698" y="-2013.3" font-family="Times,serif" font-size="14.00">updated_at :timestamp without time zone</text>
<text text-anchor="start" x="698" y="-1998.3" font-family="Times,serif" font-size="14.00">uid :character varying</text>
<text text-anchor="start" x="698" y="-1983.3" font-family="Times,serif" font-size="14.00">nickname :character varying</text>
<text text-anchor="start" x="698" y="-1968.3" font-family="Times,serif" font-size="14.00">owners_name :character varying</text>
<text text-anchor="start" x="698" y="-1953.3" font-family="Times,serif" font-size="14.00">image :character varying</text>
<text text-anchor="start" x="698" y="-1938.3" font-family="Times,serif" font-size="14.00">bio :character varying</text>
<text text-anchor="start" x="698" y="-1923.3" font-family="Times,serif" font-size="14.00">website :character varying</text>
<text text-anchor="start" x="698" y="-1908.3" font-family="Times,serif" font-size="14.00">token :character varying</text>
<text text-anchor="start" x="698" y="-1893.3" font-family="Times,serif" font-size="14.00">cents_per_like :integer</text>
<text text-anchor="start" x="698" y="-1878.3" font-family="Times,serif" font-size="14.00">dollars_per_follow :double precision</text>
<text text-anchor="start" x="698" y="-1863.3" font-family="Times,serif" font-size="14.00">days_to_post :integer</text>
<text text-anchor="start" x="698" y="-1848.3" font-family="Times,serif" font-size="14.00">max_total_allowed :double precision</text>
<text text-anchor="start" x="698" y="-1833.3" font-family="Times,serif" font-size="14.00">follower_count :character varying</text>
<text text-anchor="start" x="698" y="-1818.3" font-family="Times,serif" font-size="14.00">following_count :character varying</text>
<text text-anchor="start" x="698" y="-1803.3" font-family="Times,serif" font-size="14.00">media_count :character varying</text>
<text text-anchor="start" x="698" y="-1788.3" font-family="Times,serif" font-size="14.00">name :character varying</text>
</g>
<!-- FollowedBy -->
<g id="node4" class="node"><title>FollowedBy</title>
<path fill="none" stroke="black" d="M360,-706.5C360,-706.5 584,-706.5 584,-706.5 590,-706.5 596,-712.5 596,-718.5 596,-718.5 596,-815.5 596,-815.5 596,-821.5 590,-827.5 584,-827.5 584,-827.5 360,-827.5 360,-827.5 354,-827.5 348,-821.5 348,-815.5 348,-815.5 348,-718.5 348,-718.5 348,-712.5 354,-706.5 360,-706.5"/>
<text text-anchor="middle" x="472" y="-812.3" font-family="Times,serif" font-size="14.00">FollowedBy</text>
<polyline fill="none" stroke="black" points="348,-804.5 596,-804.5 "/>
<text text-anchor="start" x="356" y="-789.3" font-family="Times,serif" font-size="14.00">id :integer</text>
<text text-anchor="start" x="356" y="-774.3" font-family="Times,serif" font-size="14.00">followable_id :integer</text>
<text text-anchor="start" x="356" y="-759.3" font-family="Times,serif" font-size="14.00">followable_type :character varying</text>
<text text-anchor="start" x="356" y="-744.3" font-family="Times,serif" font-size="14.00">follower_id :integer</text>
<text text-anchor="start" x="356" y="-729.3" font-family="Times,serif" font-size="14.00">created_at :timestamp without time zone</text>
<text text-anchor="start" x="356" y="-714.3" font-family="Times,serif" font-size="14.00">updated_at :timestamp without time zone</text>
</g>
<!-- Brand&#45;&gt;FollowedBy -->
<g id="edge2" class="edge"><title>Brand&#45;&gt;FollowedBy</title>
<path fill="none" stroke="#66a398" d="M770.687,-1772.82C739.549,-1711.08 697.8,-1649.76 643,-1607 588.608,-1564.56 535.426,-1624.61 492,-1571 446.503,-1514.83 461.582,-1022.95 468.96,-837.945"/>
<ellipse fill="none" stroke="#66a398" cx="772.651" cy="-1776.77" rx="4.00002" ry="4.00002"/>
<polygon fill="#66a398" stroke="#66a398" points="468.967,-837.778 473.867,-827.968 469.169,-832.782 469.37,-827.787 469.37,-827.787 469.37,-827.787 469.169,-832.782 464.874,-827.605 468.967,-837.778 468.967,-837.778"/>
</g>
<!-- Follower -->
<g id="node5" class="node"><title>Follower</title>
<path fill="none" stroke="black" d="M398,-1607.5C398,-1607.5 622,-1607.5 622,-1607.5 628,-1607.5 634,-1613.5 634,-1619.5 634,-1619.5 634,-1731.5 634,-1731.5 634,-1737.5 628,-1743.5 622,-1743.5 622,-1743.5 398,-1743.5 398,-1743.5 392,-1743.5 386,-1737.5 386,-1731.5 386,-1731.5 386,-1619.5 386,-1619.5 386,-1613.5 392,-1607.5 398,-1607.5"/>
<text text-anchor="middle" x="510" y="-1728.3" font-family="Times,serif" font-size="14.00">Follower</text>
<polyline fill="none" stroke="black" points="386,-1720.5 634,-1720.5 "/>
<text text-anchor="start" x="394" y="-1705.3" font-family="Times,serif" font-size="14.00">id :integer</text>
<text text-anchor="start" x="394" y="-1690.3" font-family="Times,serif" font-size="14.00">username :character varying</text>
<text text-anchor="start" x="394" y="-1675.3" font-family="Times,serif" font-size="14.00">profile_picture :character varying</text>
<text text-anchor="start" x="394" y="-1660.3" font-family="Times,serif" font-size="14.00">uid :character varying</text>
<text text-anchor="start" x="394" y="-1645.3" font-family="Times,serif" font-size="14.00">name :character varying</text>
<text text-anchor="start" x="394" y="-1630.3" font-family="Times,serif" font-size="14.00">created_at :timestamp without time zone</text>
<text text-anchor="start" x="394" y="-1615.3" font-family="Times,serif" font-size="14.00">updated_at :timestamp without time zone</text>
</g>
<!-- Brand&#45;&gt;Follower -->
<g id="edge3" class="edge"><title>Brand&#45;&gt;Follower</title>
<path fill="none" stroke="#cef0ef" d="M682.683,-1843.34C649.285,-1811.07 615.749,-1778.67 587.232,-1751.12"/>
<polygon fill="#cef0ef" stroke="#cef0ef" points="682.764,-1843.42 686.829,-1853.61 686.36,-1846.89 689.956,-1850.37 689.956,-1850.37 689.956,-1850.37 686.36,-1846.89 693.083,-1847.13 682.764,-1843.42 682.764,-1843.42"/>
<polygon fill="#cef0ef" stroke="#cef0ef" points="586.903,-1750.8 582.838,-1740.62 583.307,-1747.33 579.711,-1743.85 579.711,-1743.85 579.711,-1743.85 583.307,-1747.33 576.584,-1747.09 586.903,-1750.8 586.903,-1750.8"/>
</g>
<!-- Order -->
<g id="node6" class="node"><title>Order</title>
<path fill="none" stroke="black" d="M806.5,-511.5C806.5,-511.5 1043.5,-511.5 1043.5,-511.5 1049.5,-511.5 1055.5,-517.5 1055.5,-523.5 1055.5,-523.5 1055.5,-1010.5 1055.5,-1010.5 1055.5,-1016.5 1049.5,-1022.5 1043.5,-1022.5 1043.5,-1022.5 806.5,-1022.5 806.5,-1022.5 800.5,-1022.5 794.5,-1016.5 794.5,-1010.5 794.5,-1010.5 794.5,-523.5 794.5,-523.5 794.5,-517.5 800.5,-511.5 806.5,-511.5"/>
<text text-anchor="middle" x="925" y="-1007.3" font-family="Times,serif" font-size="14.00">Order</text>
<polyline fill="none" stroke="black" points="794.5,-999.5 1055.5,-999.5 "/>
<text text-anchor="start" x="802.5" y="-984.3" font-family="Times,serif" font-size="14.00">id :integer</text>
<text text-anchor="start" x="802.5" y="-969.3" font-family="Times,serif" font-size="14.00">shop_id :integer</text>
<text text-anchor="start" x="802.5" y="-954.3" font-family="Times,serif" font-size="14.00">cents_per_like :integer</text>
<text text-anchor="start" x="802.5" y="-939.3" font-family="Times,serif" font-size="14.00">dollars_per_follow :double precision</text>
<text text-anchor="start" x="802.5" y="-924.3" font-family="Times,serif" font-size="14.00">max_total_allowed :double precision</text>
<text text-anchor="start" x="802.5" y="-909.3" font-family="Times,serif" font-size="14.00">created_at :timestamp without time zone</text>
<text text-anchor="start" x="802.5" y="-894.3" font-family="Times,serif" font-size="14.00">updated_at :timestamp without time zone</text>
<text text-anchor="start" x="802.5" y="-879.3" font-family="Times,serif" font-size="14.00">email :character varying</text>
<text text-anchor="start" x="802.5" y="-864.3" font-family="Times,serif" font-size="14.00">expires_at :timestamp without time zone</text>
<text text-anchor="start" x="802.5" y="-849.3" font-family="Times,serif" font-size="14.00">shopper_id :integer</text>
<text text-anchor="start" x="802.5" y="-834.3" font-family="Times,serif" font-size="14.00">first_name :character varying</text>
<text text-anchor="start" x="802.5" y="-819.3" font-family="Times,serif" font-size="14.00">last_name :character varying</text>
<text text-anchor="start" x="802.5" y="-804.3" font-family="Times,serif" font-size="14.00">status :character varying</text>
<text text-anchor="start" x="802.5" y="-789.3" font-family="Times,serif" font-size="14.00">date_shipped :timestamp without time zone</text>
<text text-anchor="start" x="802.5" y="-774.3" font-family="Times,serif" font-size="14.00">subtotal :double precision</text>
<text text-anchor="start" x="802.5" y="-759.3" font-family="Times,serif" font-size="14.00">discount_amount :double precision</text>
<text text-anchor="start" x="802.5" y="-744.3" font-family="Times,serif" font-size="14.00">coupon_amount :double precision</text>
<text text-anchor="start" x="802.5" y="-729.3" font-family="Times,serif" font-size="14.00">store_credit_amount :double precision</text>
<text text-anchor="start" x="802.5" y="-714.3" font-family="Times,serif" font-size="14.00">gift_certificate_amount :double precision</text>
<text text-anchor="start" x="802.5" y="-699.3" font-family="Times,serif" font-size="14.00">total :double precision</text>
<text text-anchor="start" x="802.5" y="-684.3" font-family="Times,serif" font-size="14.00">item_count :integer</text>
<text text-anchor="start" x="802.5" y="-669.3" font-family="Times,serif" font-size="14.00">payment_method :character varying</text>
<text text-anchor="start" x="802.5" y="-654.3" font-family="Times,serif" font-size="14.00">payment_status :character varying</text>
<text text-anchor="start" x="802.5" y="-639.3" font-family="Times,serif" font-size="14.00">notes :text</text>
<text text-anchor="start" x="802.5" y="-624.3" font-family="Times,serif" font-size="14.00">message :text</text>
<text text-anchor="start" x="802.5" y="-609.3" font-family="Times,serif" font-size="14.00">source :character varying</text>
<text text-anchor="start" x="802.5" y="-594.3" font-family="Times,serif" font-size="14.00">city :character varying</text>
<text text-anchor="start" x="802.5" y="-579.3" font-family="Times,serif" font-size="14.00">state :character varying</text>
<text text-anchor="start" x="802.5" y="-564.3" font-family="Times,serif" font-size="14.00">zipcode :character varying</text>
<text text-anchor="start" x="802.5" y="-549.3" font-family="Times,serif" font-size="14.00">country :character varying</text>
<text text-anchor="start" x="802.5" y="-534.3" font-family="Times,serif" font-size="14.00">country_code :character varying</text>
<text text-anchor="start" x="802.5" y="-519.3" font-family="Times,serif" font-size="14.00">uid :character varying</text>
</g>
<!-- Brand&#45;&gt;Order -->
<g id="edge5" class="edge"><title>Brand&#45;&gt;Order</title>
<path fill="none" stroke="#e76904" d="M864.237,-1770.18C876.991,-1559.83 895.678,-1251.62 908.956,-1032.62"/>
<polygon fill="#e76904" stroke="#e76904" points="864.231,-1770.29 859.134,-1780 863.928,-1775.28 863.625,-1780.27 863.625,-1780.27 863.625,-1780.27 863.928,-1775.28 868.117,-1780.54 864.231,-1770.29 864.231,-1770.29"/>
<polygon fill="#e76904" stroke="#e76904" points="908.959,-1032.57 914.056,-1022.86 909.261,-1027.58 909.564,-1022.59 909.564,-1022.59 909.564,-1022.59 909.261,-1027.58 905.072,-1022.32 908.959,-1032.57 908.959,-1032.57"/>
</g>
<!-- Post -->
<g id="node7" class="node"><title>Post</title>
<path fill="none" stroke="black" d="M761,-248.5C761,-248.5 985,-248.5 985,-248.5 991,-248.5 997,-254.5 997,-260.5 997,-260.5 997,-462.5 997,-462.5 997,-468.5 991,-474.5 985,-474.5 985,-474.5 761,-474.5 761,-474.5 755,-474.5 749,-468.5 749,-462.5 749,-462.5 749,-260.5 749,-260.5 749,-254.5 755,-248.5 761,-248.5"/>
<text text-anchor="middle" x="873" y="-459.3" font-family="Times,serif" font-size="14.00">Post</text>
<polyline fill="none" stroke="black" points="749,-451.5 997,-451.5 "/>
<text text-anchor="start" x="757" y="-436.3" font-family="Times,serif" font-size="14.00">id :integer</text>
<text text-anchor="start" x="757" y="-421.3" font-family="Times,serif" font-size="14.00">shopper_id :integer</text>
<text text-anchor="start" x="757" y="-406.3" font-family="Times,serif" font-size="14.00">order_id :integer</text>
<text text-anchor="start" x="757" y="-391.3" font-family="Times,serif" font-size="14.00">media_type :character varying</text>
<text text-anchor="start" x="757" y="-376.3" font-family="Times,serif" font-size="14.00">caption :text</text>
<text text-anchor="start" x="757" y="-361.3" font-family="Times,serif" font-size="14.00">link :character varying</text>
<text text-anchor="start" x="757" y="-346.3" font-family="Times,serif" font-size="14.00">image :character varying</text>
<text text-anchor="start" x="757" y="-331.3" font-family="Times,serif" font-size="14.00">media_id :character varying</text>
<text text-anchor="start" x="757" y="-316.3" font-family="Times,serif" font-size="14.00">tagged_accounts :text</text>
<text text-anchor="start" x="757" y="-301.3" font-family="Times,serif" font-size="14.00">likes :integer</text>
<text text-anchor="start" x="757" y="-286.3" font-family="Times,serif" font-size="14.00">created_at :timestamp without time zone</text>
<text text-anchor="start" x="757" y="-271.3" font-family="Times,serif" font-size="14.00">updated_at :timestamp without time zone</text>
<text text-anchor="start" x="757" y="-256.3" font-family="Times,serif" font-size="14.00">followers_generated :text</text>
</g>
<!-- Brand&#45;&gt;Post -->
<g id="edge6" class="edge"><title>Brand&#45;&gt;Post</title>
<path fill="none" stroke="#6e1719" d="M855.334,-1770.17C859.607,-1510.68 860.612,-1121 830,-1059 818.662,-1036.03 796.095,-1046.08 785,-1023 735.713,-920.452 754.929,-620.732 785,-511 787.469,-501.991 790.641,-492.973 794.309,-484.084"/>
<polygon fill="#6e1719" stroke="#6e1719" points="855.328,-1770.5 850.661,-1780.42 855.244,-1775.5 855.161,-1780.5 855.161,-1780.5 855.161,-1780.5 855.244,-1775.5 859.66,-1780.58 855.328,-1770.5 855.328,-1770.5"/>
<polygon fill="#6e1719" stroke="#6e1719" points="794.325,-484.047 802.431,-476.662 796.314,-479.46 798.303,-474.872 798.303,-474.872 798.303,-474.872 796.314,-479.46 794.174,-473.083 794.325,-484.047 794.325,-484.047"/>
</g>
<!-- Reward -->
<g id="node8" class="node"><title>Reward</title>
<path fill="none" stroke="black" d="M976,-0.5C976,-0.5 1200,-0.5 1200,-0.5 1206,-0.5 1212,-6.5 1212,-12.5 1212,-12.5 1212,-199.5 1212,-199.5 1212,-205.5 1206,-211.5 1200,-211.5 1200,-211.5 976,-211.5 976,-211.5 970,-211.5 964,-205.5 964,-199.5 964,-199.5 964,-12.5 964,-12.5 964,-6.5 970,-0.5 976,-0.5"/>
<text text-anchor="middle" x="1088" y="-196.3" font-family="Times,serif" font-size="14.00">Reward</text>
<polyline fill="none" stroke="black" points="964,-188.5 1212,-188.5 "/>
<text text-anchor="start" x="972" y="-173.3" font-family="Times,serif" font-size="14.00">id :integer</text>
<text text-anchor="start" x="972" y="-158.3" font-family="Times,serif" font-size="14.00">post_id :integer</text>
<text text-anchor="start" x="972" y="-143.3" font-family="Times,serif" font-size="14.00">payable_total :double precision</text>
<text text-anchor="start" x="972" y="-128.3" font-family="Times,serif" font-size="14.00">created_at :timestamp without time zone</text>
<text text-anchor="start" x="972" y="-113.3" font-family="Times,serif" font-size="14.00">updated_at :timestamp without time zone</text>
<text text-anchor="start" x="972" y="-98.3" font-family="Times,serif" font-size="14.00">calculated_total :double precision</text>
<text text-anchor="start" x="972" y="-83.3" font-family="Times,serif" font-size="14.00">followers_generated :integer</text>
<text text-anchor="start" x="972" y="-68.3" font-family="Times,serif" font-size="14.00">likes :integer</text>
<text text-anchor="start" x="972" y="-53.3" font-family="Times,serif" font-size="14.00">cents_per_like :integer</text>
<text text-anchor="start" x="972" y="-38.3" font-family="Times,serif" font-size="14.00">dollars_per_follow :double precision</text>
<text text-anchor="start" x="972" y="-23.3" font-family="Times,serif" font-size="14.00">max_total_allowed :double precision</text>
<text text-anchor="start" x="972" y="-8.3" font-family="Times,serif" font-size="14.00">code :character varying</text>
</g>
<!-- Brand&#45;&gt;Reward -->
<g id="edge7" class="edge"><title>Brand&#45;&gt;Reward</title>
<path fill="none" stroke="#59984e" d="M1017.44,-1856.77C1091.65,-1779.85 1170.9,-1679.39 1210,-1571 1299.43,-1323.11 1164.98,-521.441 1109.82,-221.59"/>
<polygon fill="#59984e" stroke="#59984e" points="1017.24,-1856.97 1007.05,-1861 1013.76,-1860.55 1010.27,-1864.14 1010.27,-1864.14 1010.27,-1864.14 1013.76,-1860.55 1013.5,-1867.27 1017.24,-1856.97 1017.24,-1856.97"/>
<polygon fill="#59984e" stroke="#59984e" points="1109.79,-221.403 1112.4,-210.752 1108.88,-216.486 1107.97,-211.569 1107.97,-211.569 1107.97,-211.569 1108.88,-216.486 1103.55,-212.385 1109.79,-221.403 1109.79,-221.403"/>
</g>
<!-- Shop -->
<g id="node9" class="node"><title>Shop</title>
<path fill="none" stroke="black" d="M965,-1217C965,-1217 1189,-1217 1189,-1217 1195,-1217 1201,-1223 1201,-1229 1201,-1229 1201,-1401 1201,-1401 1201,-1407 1195,-1413 1189,-1413 1189,-1413 965,-1413 965,-1413 959,-1413 953,-1407 953,-1401 953,-1401 953,-1229 953,-1229 953,-1223 959,-1217 965,-1217"/>
<text text-anchor="middle" x="1077" y="-1397.8" font-family="Times,serif" font-size="14.00">Shop</text>
<polyline fill="none" stroke="black" points="953,-1390 1201,-1390 "/>
<text text-anchor="start" x="961" y="-1374.8" font-family="Times,serif" font-size="14.00">id :integer</text>
<text text-anchor="start" x="961" y="-1359.8" font-family="Times,serif" font-size="14.00">created_at :timestamp without time zone</text>
<text text-anchor="start" x="961" y="-1344.8" font-family="Times,serif" font-size="14.00">updated_at :timestamp without time zone</text>
<text text-anchor="start" x="961" y="-1329.8" font-family="Times,serif" font-size="14.00">brand_id :integer</text>
<text text-anchor="start" x="961" y="-1314.8" font-family="Times,serif" font-size="14.00">provider :character varying</text>
<text text-anchor="start" x="961" y="-1299.8" font-family="Times,serif" font-size="14.00">uid :character varying</text>
<text text-anchor="start" x="961" y="-1284.8" font-family="Times,serif" font-size="14.00">token :character varying</text>
<text text-anchor="start" x="961" y="-1269.8" font-family="Times,serif" font-size="14.00">store_hash :character varying</text>
<text text-anchor="start" x="961" y="-1254.8" font-family="Times,serif" font-size="14.00">stripe_id :character varying</text>
<text text-anchor="start" x="961" y="-1239.8" font-family="Times,serif" font-size="14.00">url :character varying</text>
<text text-anchor="start" x="961" y="-1224.8" font-family="Times,serif" font-size="14.00">plan :character varying</text>
</g>
<!-- Brand&#45;&gt;Shop -->
<g id="edge4" class="edge"><title>Brand&#45;&gt;Shop</title>
<path fill="none" stroke="#734709" d="M926.543,-1772.67C965.852,-1653.36 1011.8,-1513.9 1042.48,-1420.78"/>
<ellipse fill="none" stroke="#734709" cx="925.266" cy="-1776.55" rx="4.00001" ry="4.00001"/>
<ellipse fill="#734709" stroke="#734709" cx="1043.78" cy="-1416.84" rx="4.00001" ry="4.00001"/>
</g>
<!-- Follower&#45;&gt;FollowedBy -->
<g id="edge10" class="edge"><title>Follower&#45;&gt;FollowedBy</title>
<path fill="none" stroke="#01ef7e" d="M468.332,-1599.86C464.512,-1590.38 461.242,-1580.62 459,-1571 397.305,-1306.21 437.138,-978.913 459.627,-837.958"/>
<ellipse fill="none" stroke="#01ef7e" cx="469.953" cy="-1603.71" rx="4.00002" ry="4.00002"/>
<polygon fill="#01ef7e" stroke="#01ef7e" points="459.684,-837.601 465.723,-828.448 460.482,-832.665 461.281,-827.729 461.281,-827.729 461.281,-827.729 460.482,-832.665 456.838,-827.011 459.684,-837.601 459.684,-837.601"/>
</g>
<!-- Shopper -->
<g id="node10" class="node"><title>Shopper</title>
<path fill="none" stroke="black" d="M513,-1059.5C513,-1059.5 809,-1059.5 809,-1059.5 815,-1059.5 821,-1065.5 821,-1071.5 821,-1071.5 821,-1558.5 821,-1558.5 821,-1564.5 815,-1570.5 809,-1570.5 809,-1570.5 513,-1570.5 513,-1570.5 507,-1570.5 501,-1564.5 501,-1558.5 501,-1558.5 501,-1071.5 501,-1071.5 501,-1065.5 507,-1059.5 513,-1059.5"/>
<text text-anchor="middle" x="661" y="-1555.3" font-family="Times,serif" font-size="14.00">Shopper</text>
<polyline fill="none" stroke="black" points="501,-1547.5 821,-1547.5 "/>
<text text-anchor="start" x="509" y="-1532.3" font-family="Times,serif" font-size="14.00">id :integer</text>
<text text-anchor="start" x="509" y="-1517.3" font-family="Times,serif" font-size="14.00">email :character varying</text>
<text text-anchor="start" x="509" y="-1502.3" font-family="Times,serif" font-size="14.00">encrypted_password :character varying</text>
<text text-anchor="start" x="509" y="-1487.3" font-family="Times,serif" font-size="14.00">reset_password_token :character varying</text>
<text text-anchor="start" x="509" y="-1472.3" font-family="Times,serif" font-size="14.00">reset_password_sent_at :timestamp without time zone</text>
<text text-anchor="start" x="509" y="-1457.3" font-family="Times,serif" font-size="14.00">remember_created_at :timestamp without time zone</text>
<text text-anchor="start" x="509" y="-1442.3" font-family="Times,serif" font-size="14.00">sign_in_count :integer</text>
<text text-anchor="start" x="509" y="-1427.3" font-family="Times,serif" font-size="14.00">current_sign_in_at :timestamp without time zone</text>
<text text-anchor="start" x="509" y="-1412.3" font-family="Times,serif" font-size="14.00">last_sign_in_at :timestamp without time zone</text>
<text text-anchor="start" x="509" y="-1397.3" font-family="Times,serif" font-size="14.00">current_sign_in_ip :inet</text>
<text text-anchor="start" x="509" y="-1382.3" font-family="Times,serif" font-size="14.00">last_sign_in_ip :inet</text>
<text text-anchor="start" x="509" y="-1367.3" font-family="Times,serif" font-size="14.00">created_at :timestamp without time zone</text>
<text text-anchor="start" x="509" y="-1352.3" font-family="Times,serif" font-size="14.00">updated_at :timestamp without time zone</text>
<text text-anchor="start" x="509" y="-1337.3" font-family="Times,serif" font-size="14.00">provider :character varying</text>
<text text-anchor="start" x="509" y="-1322.3" font-family="Times,serif" font-size="14.00">uid :character varying</text>
<text text-anchor="start" x="509" y="-1307.3" font-family="Times,serif" font-size="14.00">nickname :character varying</text>
<text text-anchor="start" x="509" y="-1292.3" font-family="Times,serif" font-size="14.00">name :character varying</text>
<text text-anchor="start" x="509" y="-1277.3" font-family="Times,serif" font-size="14.00">image :character varying</text>
<text text-anchor="start" x="509" y="-1262.3" font-family="Times,serif" font-size="14.00">bio :character varying</text>
<text text-anchor="start" x="509" y="-1247.3" font-family="Times,serif" font-size="14.00">website :character varying</text>
<text text-anchor="start" x="509" y="-1232.3" font-family="Times,serif" font-size="14.00">token :character varying</text>
<text text-anchor="start" x="509" y="-1217.3" font-family="Times,serif" font-size="14.00">follower_count :character varying</text>
<text text-anchor="start" x="509" y="-1202.3" font-family="Times,serif" font-size="14.00">following_count :character varying</text>
<text text-anchor="start" x="509" y="-1187.3" font-family="Times,serif" font-size="14.00">media_count :character varying</text>
<text text-anchor="start" x="509" y="-1172.3" font-family="Times,serif" font-size="14.00">first_name :character varying</text>
<text text-anchor="start" x="509" y="-1157.3" font-family="Times,serif" font-size="14.00">last_name :character varying</text>
<text text-anchor="start" x="509" y="-1142.3" font-family="Times,serif" font-size="14.00">city :character varying</text>
<text text-anchor="start" x="509" y="-1127.3" font-family="Times,serif" font-size="14.00">state :character varying</text>
<text text-anchor="start" x="509" y="-1112.3" font-family="Times,serif" font-size="14.00">zipcode :character varying</text>
<text text-anchor="start" x="509" y="-1097.3" font-family="Times,serif" font-size="14.00">country :character varying</text>
<text text-anchor="start" x="509" y="-1082.3" font-family="Times,serif" font-size="14.00">country_code :character varying</text>
<text text-anchor="start" x="509" y="-1067.3" font-family="Times,serif" font-size="14.00">address_type :character varying</text>
</g>
<!-- Follower&#45;&gt;Shopper -->
<g id="edge11" class="edge"><title>Follower&#45;&gt;Shopper</title>
<path fill="none" stroke="#c8f31a" d="M542.121,-1598.24C544.585,-1592.39 547.143,-1586.32 549.776,-1580.07"/>
<polygon fill="#c8f31a" stroke="#c8f31a" points="542.107,-1598.27 534.078,-1605.74 540.166,-1602.88 538.225,-1607.49 538.225,-1607.49 538.225,-1607.49 540.166,-1602.88 542.372,-1609.24 542.107,-1598.27 542.107,-1598.27"/>
<polygon fill="#c8f31a" stroke="#c8f31a" points="549.803,-1580 557.832,-1572.53 551.744,-1575.39 553.685,-1570.78 553.685,-1570.78 553.685,-1570.78 551.744,-1575.39 549.538,-1569.04 549.803,-1580 549.803,-1580"/>
</g>
<!-- Order&#45;&gt;Post -->
<g id="edge13" class="edge"><title>Order&#45;&gt;Post</title>
<path fill="none" stroke="#2096ae" d="M891.121,-503.111C890.241,-496.283 889.374,-489.557 888.525,-482.971"/>
<ellipse fill="none" stroke="#2096ae" cx="891.667" cy="-507.349" rx="4.00001" ry="4.00001"/>
<ellipse fill="#2096ae" stroke="#2096ae" cx="887.971" cy="-478.672" rx="4.00001" ry="4.00001"/>
</g>
<!-- Order&#45;&gt;Reward -->
<g id="edge14" class="edge"><title>Order&#45;&gt;Reward</title>
<path fill="none" stroke="#60abc8" d="M998.69,-503.707C1001.19,-494.026 1003.64,-484.433 1006,-475 1027.36,-389.691 1048.89,-292.565 1064.52,-219.523"/>
<ellipse fill="none" stroke="#60abc8" cx="997.675" cy="-507.616" rx="4.00001" ry="4.00001"/>
<ellipse fill="#60abc8" stroke="#60abc8" cx="1065.37" cy="-215.548" rx="4.00001" ry="4.00001"/>
</g>
<!-- Post&#45;&gt;Reward -->
<g id="edge16" class="edge"><title>Post&#45;&gt;Reward</title>
<path fill="none" stroke="#19a4fe" d="M973.581,-241.908C980.427,-233.836 987.311,-225.719 994.121,-217.69"/>
<ellipse fill="none" stroke="#19a4fe" cx="970.828" cy="-245.154" rx="4.00002" ry="4.00002"/>
<ellipse fill="#19a4fe" stroke="#19a4fe" cx="996.725" cy="-214.619" rx="4.00002" ry="4.00002"/>
</g>
<!-- Shop&#45;&gt;Order -->
<g id="edge19" class="edge"><title>Shop&#45;&gt;Order</title>
<path fill="none" stroke="#3251cb" d="M1047.75,-1208.94C1033.65,-1158.27 1016.02,-1094.96 998.57,-1032.27"/>
<ellipse fill="none" stroke="#3251cb" cx="1048.84" cy="-1212.85" rx="4.00001" ry="4.00001"/>
<polygon fill="#3251cb" stroke="#3251cb" points="998.567,-1032.26 1000.22,-1021.42 997.226,-1027.44 995.885,-1022.63 995.885,-1022.63 995.885,-1022.63 997.226,-1027.44 991.549,-1023.83 998.567,-1032.26 998.567,-1032.26"/>
</g>
<!-- Shop&#45;&gt;Post -->
<g id="edge20" class="edge"><title>Shop&#45;&gt;Post</title>
<path fill="none" stroke="#2733c6" d="M1086.69,-1206.79C1102.02,-1016.8 1124.43,-629.835 1065,-511 1051.05,-483.112 1029.13,-458.94 1005.01,-438.665"/>
<polygon fill="#2733c6" stroke="#2733c6" points="1086.69,-1206.83 1081.39,-1216.43 1086.28,-1211.82 1085.87,-1216.8 1085.87,-1216.8 1085.87,-1216.8 1086.28,-1211.82 1090.36,-1217.17 1086.69,-1206.83 1086.69,-1206.83"/>
<polygon fill="#2733c6" stroke="#2733c6" points="1004.85,-438.539 999.947,-428.732 1000.98,-435.379 997.103,-432.219 997.103,-432.219 997.103,-432.219 1000.98,-435.379 994.258,-435.706 1004.85,-438.539 1004.85,-438.539"/>
</g>
<!-- Shop&#45;&gt;Reward -->
<g id="edge21" class="edge"><title>Shop&#45;&gt;Reward</title>
<path fill="none" stroke="#a5e0d3" d="M1086.6,-1206.67C1091.04,-1151.78 1095.81,-1083.88 1098,-1023 1108.38,-734.909 1099.05,-395.552 1092.71,-221.963"/>
<polygon fill="#a5e0d3" stroke="#a5e0d3" points="1086.59,-1206.8 1081.29,-1216.4 1086.18,-1211.78 1085.78,-1216.76 1085.78,-1216.76 1085.78,-1216.76 1086.18,-1211.78 1090.26,-1217.13 1086.59,-1206.8 1086.59,-1206.8"/>
<polygon fill="#a5e0d3" stroke="#a5e0d3" points="1092.71,-221.781 1096.84,-211.622 1092.52,-216.785 1092.34,-211.788 1092.34,-211.788 1092.34,-211.788 1092.52,-216.785 1087.84,-211.954 1092.71,-221.781 1092.71,-221.781"/>
</g>
<!-- Shopper&#45;&gt;FollowedBy -->
<g id="edge23" class="edge"><title>Shopper&#45;&gt;FollowedBy</title>
<path fill="none" stroke="#1d7836" d="M570.235,-1051.79C542.836,-972.637 515.017,-892.272 496.012,-837.368"/>
<ellipse fill="none" stroke="#1d7836" cx="571.555" cy="-1055.6" rx="4.00001" ry="4.00001"/>
<polygon fill="#1d7836" stroke="#1d7836" points="495.957,-837.209 496.938,-826.287 494.321,-832.484 492.686,-827.759 492.686,-827.759 492.686,-827.759 494.321,-832.484 488.433,-829.231 495.957,-837.209 495.957,-837.209"/>
</g>
<!-- Shopper&#45;&gt;Order -->
<g id="edge25" class="edge"><title>Shopper&#45;&gt;Order</title>
<path fill="none" stroke="#b584d1" d="M787.718,-1051.92C790.963,-1045.21 794.212,-1038.49 797.457,-1031.78"/>
<ellipse fill="none" stroke="#b584d1" cx="785.853" cy="-1055.78" rx="4.00002" ry="4.00002"/>
<polygon fill="#b584d1" stroke="#b584d1" points="797.526,-1031.64 805.931,-1024.59 799.703,-1027.14 801.88,-1022.64 801.88,-1022.64 801.88,-1022.64 799.703,-1027.14 797.828,-1020.68 797.526,-1031.64 797.526,-1031.64"/>
</g>
<!-- Shopper&#45;&gt;Post -->
<g id="edge24" class="edge"><title>Shopper&#45;&gt;Post</title>
<path fill="none" stroke="#9c6534" d="M683.361,-1051.23C702.873,-836.406 731.233,-560.356 752,-511 755.958,-501.592 760.707,-492.306 765.999,-483.247"/>
<ellipse fill="none" stroke="#9c6534" cx="682.974" cy="-1055.5" rx="4" ry="4"/>
<polygon fill="#9c6534" stroke="#9c6534" points="766.039,-483.181 775.077,-476.971 768.635,-478.907 771.232,-474.634 771.232,-474.634 771.232,-474.634 768.635,-478.907 767.386,-472.298 766.039,-483.181 766.039,-483.181"/>
</g>
<!-- Shopper&#45;&gt;Reward -->
<g id="edge26" class="edge"><title>Shopper&#45;&gt;Reward</title>
<path fill="none" stroke="#487e78" d="M646.531,-1049.33C637.252,-773.438 641.722,-365.198 740,-248 793.515,-184.182 880.293,-148.945 953.803,-129.655"/>
<polygon fill="#487e78" stroke="#487e78" points="646.537,-1049.5 642.384,-1059.65 646.709,-1054.5 646.882,-1059.49 646.882,-1059.49 646.882,-1059.49 646.709,-1054.5 651.379,-1059.34 646.537,-1049.5 646.537,-1049.5"/>
<polygon fill="#487e78" stroke="#487e78" points="953.93,-129.623 964.731,-131.513 958.775,-128.388 963.62,-127.152 963.62,-127.152 963.62,-127.152 958.775,-128.388 962.508,-122.792 953.93,-129.623 953.93,-129.623"/>
</g>
<!-- ActiveRecord::Base -->
<g id="node11" class="node"><title>ActiveRecord::Base</title>
<ellipse fill="none" stroke="black" cx="662" cy="-2307" rx="83.6854" ry="18"/>
<text text-anchor="middle" x="662" y="-2303.3" font-family="Times,serif" font-size="14.00">ActiveRecord::Base</text>
</g>
<!-- ActiveRecord::Base&#45;&gt;Admin -->
<g id="edge1" class="edge"><title>ActiveRecord::Base&#45;&gt;Admin</title>
<path fill="none" stroke="black" d="M629.556,-2290.39C612,-2282.55 589.721,-2273.56 569,-2268 455.046,-2237.45 406.927,-2293.1 306,-2232 261.818,-2205.25 226.483,-2161.16 200.375,-2119.07"/>
</g>
<!-- ActiveRecord::Base&#45;&gt;Brand -->
<g id="edge8" class="edge"><title>ActiveRecord::Base&#45;&gt;Brand</title>
<path fill="none" stroke="black" d="M672.646,-2289.07C681.035,-2275.73 693.777,-2255.46 708.661,-2231.79"/>
</g>
<!-- ActiveRecord::Base&#45;&gt;FollowedBy -->
<g id="edge9" class="edge"><title>ActiveRecord::Base&#45;&gt;FollowedBy</title>
<path fill="none" stroke="black" d="M619.589,-2291.34C591.084,-2279.46 554.71,-2260.06 532,-2232 388.832,-2055.11 411.856,-1968.88 377,-1744 323.544,-1399.12 416.62,-980.724 455.826,-827.71"/>
</g>
<!-- ActiveRecord::Base&#45;&gt;Follower -->
<g id="edge12" class="edge"><title>ActiveRecord::Base&#45;&gt;Follower</title>
<path fill="none" stroke="black" d="M657.856,-2288.84C638.978,-2210.66 560.574,-1885.95 526.233,-1743.73"/>
</g>
<!-- ActiveRecord::Base&#45;&gt;Order -->
<g id="edge15" class="edge"><title>ActiveRecord::Base&#45;&gt;Order</title>
<path fill="none" stroke="black" d="M740.987,-2300.96C835.293,-2293.11 984.636,-2274.22 1019,-2232 1145.82,-2076.2 1053.44,-1977.92 1019,-1780 1002.08,-1682.77 962.066,-1668.02 944,-1571 910.272,-1389.87 906.298,-1181.81 910.349,-1022.86"/>
</g>
<!-- ActiveRecord::Base&#45;&gt;Post -->
<g id="edge17" class="edge"><title>ActiveRecord::Base&#45;&gt;Post</title>
<path fill="none" stroke="black" d="M628.573,-2290.44C611.121,-2282.8 589.238,-2273.99 569,-2268 486.583,-2243.62 437.249,-2295.2 379,-2232 294.867,-2140.72 320,-1800.64 320,-1676.5 320,-1676.5 320,-1676.5 320,-1314 320,-957.011 119.671,-792.666 339,-511 389.141,-446.608 607.281,-402.351 748.774,-379.817"/>
</g>
<!-- ActiveRecord::Base&#45;&gt;Reward -->
<g id="edge18" class="edge"><title>ActiveRecord::Base&#45;&gt;Reward</title>
<path fill="none" stroke="black" d="M741.025,-2300.71C844.151,-2292.29 1017.13,-2272.47 1065,-2232 1265.62,-2062.4 1267,-1939.21 1267,-1676.5 1267,-1676.5 1267,-1676.5 1267,-766 1267,-564.308 1187.95,-339.652 1134.91,-211.627"/>
</g>
<!-- ActiveRecord::Base&#45;&gt;Shop -->
<g id="edge22" class="edge"><title>ActiveRecord::Base&#45;&gt;Shop</title>
<path fill="none" stroke="black" d="M740.561,-2300.61C834.429,-2292.38 983.319,-2273.11 1019,-2232 1220.46,-1999.89 1151.27,-1597.58 1104.91,-1413.28"/>
</g>
<!-- ActiveRecord::Base&#45;&gt;Shopper -->
<g id="edge27" class="edge"><title>ActiveRecord::Base&#45;&gt;Shopper</title>
<path fill="none" stroke="black" d="M661.983,-2288.82C661.898,-2204.66 661.519,-1829.61 661.257,-1570.58"/>
</g>
</g>
</svg>
